<svg width="16" height="16" fill="currentColor" viewBox="0 0 24 24" xmlns="http://www.w3.org/2000/svg"><path d="M12 2.16c3.2 0 3.58.01 4.85.07 3.25.15 4.77 1.69 4.92 4.92.06 1.27.07 1.65.07 4.85s-.01 3.58-.07 4.85c-.15 3.23-1.66 4.77-4.92 4.92-1.27.06-1.64.07-4.85.07s-3.58-.01-4.85-.07c-3.26-.15-4.77-1.69-4.92-4.92C2.17 15.58 2.16 15.2 2.16 12s.01-3.58.07-4.85C2.38 3.92 3.9 2.38 7.15 2.23 8.42 2.17 8.8 2.16 12 2.16zM12 0C8.74 0 8.33.01 7.05.07c-4.36.2-6.78 2.62-6.98 6.98C.01 8.33 0 8.74 0 12s.01 3.67.07 4.95c.2 4.36 2.62 6.78 6.98 6.98C8.33 23.99 8.74 24 12 24s3.67-.01 4.95-.07c4.35-.2 6.78-2.62 6.98-6.98.06-1.28.07-1.69.07-4.95s-.01-3.67-.07-4.95c-.2-4.35-2.62-6.78-6.98-6.98C15.67.01 15.26 0 12 0zm0 5.84A6.16 6.16 0 1 0 18.16 12 6.16 6.16 0 0 0 12 5.84zM12 16a4 4 0 1 1 4-4 4 4 0 0 1-4 4z"></path></svg>